<svg width="284" height="133" viewBox="0 0 284 133" fill="none" xmlns="http://www.w3.org/2000/svg">
<g filter="url(#filter0_d_102_61)">
<g filter="url(#filter1_d_102_61)">
<path d="M161.286 79.1604C161.235 78.7286 161.027 78.3934 160.664 78.1547C160.3 77.9161 159.854 77.7968 159.326 77.7968C158.939 77.7968 158.601 77.8593 158.311 77.9843C158.024 78.1093 157.8 78.2812 157.638 78.4999C157.479 78.7187 157.399 78.9672 157.399 79.2457C157.399 79.4786 157.455 79.6789 157.566 79.8465C157.679 80.0113 157.824 80.1491 158 80.2599C158.176 80.3678 158.361 80.4573 158.554 80.5283C158.747 80.5965 158.925 80.6519 159.087 80.6945L159.973 80.9332C160.201 80.9928 160.453 81.0752 160.732 81.1803C161.013 81.2854 161.282 81.4289 161.537 81.6107C161.796 81.7897 162.009 82.0198 162.176 82.301C162.344 82.5823 162.428 82.9275 162.428 83.3366C162.428 83.8082 162.304 84.2343 162.057 84.615C161.813 84.9957 161.455 85.2982 160.983 85.5226C160.514 85.7471 159.945 85.8593 159.274 85.8593C158.649 85.8593 158.108 85.7584 157.651 85.5567C157.196 85.355 156.838 85.0738 156.577 84.713C156.318 84.3522 156.172 83.9332 156.138 83.4559H157.229C157.257 83.7854 157.368 84.0582 157.561 84.2741C157.757 84.4871 158.005 84.6462 158.303 84.7513C158.604 84.8536 158.928 84.9047 159.274 84.9047C159.678 84.9047 160.04 84.8394 160.361 84.7087C160.682 84.5752 160.936 84.3905 161.124 84.1547C161.311 83.9161 161.405 83.6377 161.405 83.3195C161.405 83.0297 161.324 82.7939 161.162 82.6121C161 82.4303 160.787 82.2826 160.523 82.1689C160.259 82.0553 159.973 81.9559 159.666 81.8707L158.593 81.5638C157.911 81.3678 157.371 81.088 156.973 80.7243C156.576 80.3607 156.377 79.8849 156.377 79.2968C156.377 78.8082 156.509 78.382 156.773 78.0184C157.04 77.6519 157.398 77.3678 157.847 77.1661C158.299 76.9616 158.803 76.8593 159.36 76.8593C159.922 76.8593 160.422 76.9601 160.86 77.1618C161.297 77.3607 161.644 77.6334 161.899 77.98C162.158 78.3266 162.294 78.7201 162.309 79.1604H161.286ZM164.029 85.7059V79.1604H165.035V85.7059H164.029ZM164.54 78.0695C164.344 78.0695 164.175 78.0028 164.033 77.8692C163.894 77.7357 163.825 77.5752 163.825 77.3877C163.825 77.2002 163.894 77.0397 164.033 76.9062C164.175 76.7726 164.344 76.7059 164.54 76.7059C164.736 76.7059 164.904 76.7726 165.043 76.9062C165.185 77.0397 165.256 77.2002 165.256 77.3877C165.256 77.5752 165.185 77.7357 165.043 77.8692C164.904 78.0028 164.736 78.0695 164.54 78.0695ZM171.513 80.6263L170.61 80.882C170.553 80.7314 170.469 80.5851 170.358 80.4431C170.25 80.2982 170.103 80.1789 169.915 80.0851C169.728 79.9914 169.488 79.9445 169.195 79.9445C168.794 79.9445 168.461 80.0368 168.193 80.2215C167.929 80.4033 167.797 80.6349 167.797 80.9161C167.797 81.1661 167.888 81.3635 168.07 81.5084C168.252 81.6533 168.536 81.7741 168.922 81.8707L169.894 82.1093C170.479 82.2513 170.915 82.4687 171.202 82.7613C171.489 83.051 171.632 83.4246 171.632 83.882C171.632 84.257 171.524 84.5922 171.309 84.8877C171.095 85.1832 170.797 85.4161 170.414 85.5866C170.03 85.757 169.584 85.8422 169.076 85.8422C168.408 85.8422 167.855 85.6974 167.418 85.4076C166.98 85.1178 166.703 84.6945 166.587 84.1377L167.541 83.8991C167.632 84.2513 167.804 84.5155 168.057 84.6917C168.313 84.8678 168.647 84.9559 169.059 84.9559C169.527 84.9559 169.899 84.8564 170.175 84.6576C170.453 84.4559 170.593 84.2144 170.593 83.9332C170.593 83.7059 170.513 83.5155 170.354 83.3621C170.195 83.2059 169.951 83.0894 169.621 83.0127L168.53 82.757C167.931 82.615 167.49 82.3948 167.209 82.0965C166.931 81.7954 166.791 81.4189 166.791 80.9672C166.791 80.5979 166.895 80.2712 167.103 79.9871C167.313 79.703 167.598 79.48 167.959 79.3181C168.323 79.1562 168.735 79.0752 169.195 79.0752C169.843 79.0752 170.351 79.2172 170.72 79.5013C171.093 79.7854 171.357 80.1604 171.513 80.6263ZM175.993 79.1604V80.0127H172.601V79.1604H175.993ZM173.589 77.5922H174.595V83.8309C174.595 84.115 174.636 84.328 174.719 84.4701C174.804 84.6093 174.912 84.703 175.043 84.7513C175.176 84.7968 175.317 84.8195 175.464 84.8195C175.575 84.8195 175.666 84.8138 175.737 84.8025C175.808 84.7883 175.865 84.7769 175.908 84.7684L176.112 85.6718C176.044 85.6974 175.949 85.7229 175.827 85.7485C175.704 85.7769 175.55 85.7911 175.362 85.7911C175.078 85.7911 174.8 85.73 174.527 85.6079C174.257 85.4857 174.033 85.2996 173.854 85.0496C173.677 84.7996 173.589 84.4843 173.589 84.1036V77.5922ZM180.18 85.8422C179.549 85.8422 179.005 85.703 178.548 85.4246C178.093 85.1434 177.742 84.7513 177.495 84.2485C177.251 83.7428 177.128 83.1547 177.128 82.4843C177.128 81.8138 177.251 81.2229 177.495 80.7116C177.742 80.1974 178.086 79.7968 178.526 79.5099C178.969 79.2201 179.486 79.0752 180.077 79.0752C180.418 79.0752 180.755 79.132 181.087 79.2457C181.42 79.3593 181.722 79.5439 181.995 79.7996C182.268 80.0525 182.485 80.3877 182.647 80.8053C182.809 81.2229 182.89 81.7371 182.89 82.3479V82.7741H177.844V81.9047H181.867C181.867 81.5354 181.793 81.2059 181.646 80.9161C181.501 80.6263 181.293 80.3976 181.023 80.23C180.756 80.0624 180.441 79.9786 180.077 79.9786C179.677 79.9786 179.33 80.078 179.038 80.2769C178.748 80.4729 178.525 80.7286 178.369 81.0439C178.212 81.3593 178.134 81.6974 178.134 82.0582V82.6377C178.134 83.132 178.219 83.551 178.39 83.8948C178.563 84.2357 178.803 84.4957 179.11 84.6746C179.417 84.8508 179.773 84.9388 180.18 84.9388C180.444 84.9388 180.682 84.9019 180.896 84.828C181.111 84.7513 181.298 84.6377 181.454 84.4871C181.61 84.3337 181.731 84.1434 181.816 83.9161L182.788 84.1888C182.685 84.5184 182.513 84.8082 182.272 85.0582C182.03 85.3053 181.732 85.4985 181.377 85.6377C181.022 85.7741 180.623 85.8422 180.18 85.8422ZM184.42 85.7059V79.1604H185.391V80.1832H185.476C185.613 79.8337 185.833 79.5624 186.137 79.3692C186.441 79.1732 186.806 79.0752 187.232 79.0752C187.664 79.0752 188.023 79.1732 188.31 79.3692C188.6 79.5624 188.826 79.8337 188.988 80.1832H189.056C189.224 79.8451 189.475 79.5766 189.81 79.3778C190.146 79.176 190.548 79.0752 191.016 79.0752C191.601 79.0752 192.08 79.2584 192.452 79.6249C192.825 79.9885 193.011 80.5553 193.011 81.3252V85.7059H192.005V81.3252C192.005 80.8422 191.873 80.4971 191.609 80.2897C191.344 80.0823 191.033 79.9786 190.675 79.9786C190.215 79.9786 189.859 80.1178 189.606 80.3962C189.353 80.6718 189.226 81.0212 189.226 81.4445V85.7059H188.204V81.2229C188.204 80.8508 188.083 80.551 187.842 80.3238C187.6 80.0937 187.289 79.9786 186.908 79.9786C186.647 79.9786 186.403 80.0482 186.175 80.1874C185.951 80.3266 185.769 80.5198 185.63 80.767C185.494 81.0113 185.425 81.2939 185.425 81.615V85.7059H184.42ZM196.776 85.8593C196.361 85.8593 195.984 85.7812 195.646 85.6249C195.308 85.4658 195.04 85.2371 194.841 84.9388C194.642 84.6377 194.543 84.2741 194.543 83.8479C194.543 83.4729 194.616 83.1689 194.764 82.936C194.912 82.7002 195.109 82.5155 195.356 82.382C195.604 82.2485 195.876 82.1491 196.175 82.0837C196.476 82.0155 196.778 81.9616 197.082 81.9218C197.48 81.8707 197.802 81.8323 198.05 81.8067C198.3 81.7783 198.481 81.7314 198.595 81.6661C198.712 81.6008 198.77 81.4871 198.77 81.3252V81.2911C198.77 80.8707 198.655 80.5439 198.425 80.311C198.197 80.078 197.852 79.9616 197.389 79.9616C196.909 79.9616 196.533 80.0667 196.26 80.2769C195.987 80.4871 195.795 80.7116 195.685 80.9502L194.73 80.6093C194.901 80.2116 195.128 79.9019 195.412 79.6803C195.699 79.4559 196.011 79.2996 196.349 79.2116C196.69 79.1207 197.026 79.0752 197.355 79.0752C197.565 79.0752 197.807 79.1008 198.079 79.1519C198.355 79.2002 198.621 79.301 198.876 79.4545C199.135 79.6079 199.349 79.8394 199.52 80.1491C199.69 80.4587 199.776 80.8735 199.776 81.3934V85.7059H198.77V84.8195H198.719C198.651 84.9616 198.537 85.1135 198.378 85.2755C198.219 85.4374 198.007 85.5752 197.743 85.6888C197.479 85.8025 197.156 85.8593 196.776 85.8593ZM196.929 84.9559C197.327 84.9559 197.662 84.8778 197.935 84.7215C198.21 84.5653 198.418 84.3635 198.557 84.1164C198.699 83.8692 198.77 83.6093 198.77 83.3366V82.4161C198.727 82.4672 198.633 82.5141 198.489 82.5567C198.347 82.5965 198.182 82.632 197.994 82.6633C197.81 82.6917 197.629 82.7172 197.453 82.74C197.28 82.7599 197.139 82.7769 197.031 82.7911C196.77 82.8252 196.526 82.8806 196.298 82.9573C196.074 83.0312 195.892 83.1434 195.753 83.2939C195.616 83.4417 195.548 83.6434 195.548 83.8991C195.548 84.2485 195.677 84.5127 195.936 84.6917C196.197 84.8678 196.528 84.9559 196.929 84.9559ZM207.458 85.8422C206.912 85.8422 206.431 85.7045 206.013 85.4289C205.595 85.1505 205.269 84.7584 205.033 84.2528C204.797 83.7442 204.679 83.1434 204.679 82.4502C204.679 81.7627 204.797 81.1661 205.033 80.6604C205.269 80.1547 205.597 79.7641 206.017 79.4885C206.438 79.213 206.924 79.0752 207.475 79.0752C207.901 79.0752 208.238 79.1462 208.485 79.2883C208.735 79.4275 208.925 79.5866 209.056 79.7655C209.189 79.9417 209.293 80.0866 209.367 80.2002H209.452V76.9786H210.458V85.7059H209.486V84.7002H209.367C209.293 84.8195 209.188 84.9701 209.051 85.1519C208.915 85.3309 208.72 85.4914 208.468 85.6334C208.215 85.7726 207.878 85.8422 207.458 85.8422ZM207.594 84.9388C207.997 84.9388 208.338 84.8337 208.617 84.6235C208.895 84.4104 209.107 84.1164 209.252 83.7414C209.397 83.3635 209.469 82.9275 209.469 82.4332C209.469 81.9445 209.398 81.517 209.256 81.1505C209.114 80.7812 208.904 80.4942 208.625 80.2897C208.347 80.0823 208.003 79.9786 207.594 79.9786C207.168 79.9786 206.813 80.088 206.529 80.3067C206.247 80.5226 206.036 80.8167 205.894 81.1888C205.755 81.5582 205.685 81.9729 205.685 82.4332C205.685 82.8991 205.756 83.3224 205.898 83.703C206.043 84.0809 206.256 84.382 206.537 84.6064C206.821 84.828 207.174 84.9388 207.594 84.9388ZM215.184 85.8422C214.553 85.8422 214.009 85.703 213.551 85.4246C213.097 85.1434 212.746 84.7513 212.499 84.2485C212.255 83.7428 212.132 83.1547 212.132 82.4843C212.132 81.8138 212.255 81.2229 212.499 80.7116C212.746 80.1974 213.09 79.7968 213.53 79.5099C213.973 79.2201 214.49 79.0752 215.081 79.0752C215.422 79.0752 215.759 79.132 216.091 79.2457C216.424 79.3593 216.726 79.5439 216.999 79.7996C217.272 80.0525 217.489 80.3877 217.651 80.8053C217.813 81.2229 217.894 81.7371 217.894 82.3479V82.7741H212.848V81.9047H216.871C216.871 81.5354 216.797 81.2059 216.649 80.9161C216.505 80.6263 216.297 80.3976 216.027 80.23C215.76 80.0624 215.445 79.9786 215.081 79.9786C214.681 79.9786 214.334 80.078 214.041 80.2769C213.752 80.4729 213.529 80.7286 213.372 81.0439C213.216 81.3593 213.138 81.6974 213.138 82.0582V82.6377C213.138 83.132 213.223 83.551 213.394 83.8948C213.567 84.2357 213.807 84.4957 214.114 84.6746C214.421 84.8508 214.777 84.9388 215.184 84.9388C215.448 84.9388 215.686 84.9019 215.899 84.828C216.115 84.7513 216.301 84.6377 216.458 84.4871C216.614 84.3337 216.735 84.1434 216.82 83.9161L217.791 84.1888C217.689 84.5184 217.517 84.8082 217.276 85.0582C217.034 85.3053 216.736 85.4985 216.381 85.6377C216.026 85.7741 215.627 85.8422 215.184 85.8422ZM228.901 79.7059C228.807 79.4189 228.684 79.1618 228.53 78.9346C228.38 78.7045 228.199 78.5084 227.989 78.3465C227.782 78.1846 227.546 78.061 227.282 77.9758C227.017 77.8905 226.728 77.8479 226.412 77.8479C225.895 77.8479 225.425 77.9814 225.002 78.2485C224.578 78.5155 224.242 78.909 223.992 79.4289C223.742 79.9488 223.617 80.5866 223.617 81.3422C223.617 82.0979 223.743 82.7357 223.996 83.2556C224.249 83.7755 224.591 84.1689 225.023 84.436C225.455 84.703 225.941 84.8366 226.48 84.8366C226.98 84.8366 227.421 84.73 227.801 84.517C228.185 84.301 228.483 83.9971 228.696 83.605C228.912 83.2101 229.02 82.7457 229.02 82.2116L229.344 82.2797H226.719V81.3422H230.043V82.2797C230.043 82.9985 229.889 83.6235 229.583 84.1547C229.279 84.686 228.858 85.0979 228.321 85.3905C227.787 85.6803 227.174 85.8252 226.48 85.8252C225.708 85.8252 225.029 85.6434 224.443 85.2797C223.861 84.9161 223.407 84.3991 223.08 83.7286C222.756 83.0582 222.594 82.2627 222.594 81.3422C222.594 80.6519 222.686 80.0312 222.871 79.48C223.059 78.926 223.323 78.4545 223.664 78.0653C224.005 77.676 224.408 77.3778 224.874 77.1704C225.34 76.963 225.853 76.8593 226.412 76.8593C226.872 76.8593 227.301 76.9289 227.699 77.0681C228.1 77.2045 228.456 77.3991 228.769 77.6519C229.084 77.9019 229.347 78.2016 229.557 78.551C229.767 78.8976 229.912 79.2826 229.992 79.7059H228.901ZM234.461 85.8422C233.83 85.8422 233.286 85.703 232.829 85.4246C232.374 85.1434 232.023 84.7513 231.776 84.2485C231.532 83.7428 231.41 83.1547 231.41 82.4843C231.41 81.8138 231.532 81.2229 231.776 80.7116C232.023 80.1974 232.367 79.7968 232.807 79.5099C233.251 79.2201 233.768 79.0752 234.359 79.0752C234.7 79.0752 235.036 79.132 235.369 79.2457C235.701 79.3593 236.003 79.5439 236.276 79.7996C236.549 80.0525 236.766 80.3877 236.928 80.8053C237.09 81.2229 237.171 81.7371 237.171 82.3479V82.7741H232.126V81.9047H236.148C236.148 81.5354 236.075 81.2059 235.927 80.9161C235.782 80.6263 235.575 80.3976 235.305 80.23C235.038 80.0624 234.722 79.9786 234.359 79.9786C233.958 79.9786 233.611 80.078 233.319 80.2769C233.029 80.4729 232.806 80.7286 232.65 81.0439C232.494 81.3593 232.415 81.6974 232.415 82.0582V82.6377C232.415 83.132 232.501 83.551 232.671 83.8948C232.844 84.2357 233.084 84.4957 233.391 84.6746C233.698 84.8508 234.055 84.9388 234.461 84.9388C234.725 84.9388 234.964 84.9019 235.177 84.828C235.393 84.7513 235.579 84.6377 235.735 84.4871C235.891 84.3337 236.012 84.1434 236.097 83.9161L237.069 84.1888C236.967 84.5184 236.795 84.8082 236.553 85.0582C236.312 85.3053 236.013 85.4985 235.658 85.6377C235.303 85.7741 234.904 85.8422 234.461 85.8422ZM243.337 80.6263L242.434 80.882C242.377 80.7314 242.293 80.5851 242.182 80.4431C242.075 80.2982 241.927 80.1789 241.739 80.0851C241.552 79.9914 241.312 79.9445 241.019 79.9445C240.619 79.9445 240.285 80.0368 240.018 80.2215C239.753 80.4033 239.621 80.6349 239.621 80.9161C239.621 81.1661 239.712 81.3635 239.894 81.5084C240.076 81.6533 240.36 81.7741 240.746 81.8707L241.718 82.1093C242.303 82.2513 242.739 82.4687 243.026 82.7613C243.313 83.051 243.457 83.4246 243.457 83.882C243.457 84.257 243.349 84.5922 243.133 84.8877C242.92 85.1832 242.621 85.4161 242.238 85.5866C241.854 85.757 241.408 85.8422 240.9 85.8422C240.232 85.8422 239.68 85.6974 239.242 85.4076C238.805 85.1178 238.528 84.6945 238.411 84.1377L239.366 83.8991C239.457 84.2513 239.628 84.5155 239.881 84.6917C240.137 84.8678 240.471 84.9559 240.883 84.9559C241.351 84.9559 241.724 84.8564 241.999 84.6576C242.278 84.4559 242.417 84.2144 242.417 83.9332C242.417 83.7059 242.337 83.5155 242.178 83.3621C242.019 83.2059 241.775 83.0894 241.445 83.0127L240.354 82.757C239.755 82.615 239.315 82.3948 239.033 82.0965C238.755 81.7954 238.616 81.4189 238.616 80.9672C238.616 80.5979 238.719 80.2712 238.927 79.9871C239.137 79.703 239.423 79.48 239.783 79.3181C240.147 79.1562 240.559 79.0752 241.019 79.0752C241.667 79.0752 242.175 79.2172 242.545 79.5013C242.917 79.7854 243.181 80.1604 243.337 80.6263ZM247.817 79.1604V80.0127H244.425V79.1604H247.817ZM245.414 77.5922H246.419V83.8309C246.419 84.115 246.461 84.328 246.543 84.4701C246.628 84.6093 246.736 84.703 246.867 84.7513C247 84.7968 247.141 84.8195 247.289 84.8195C247.399 84.8195 247.49 84.8138 247.561 84.8025C247.632 84.7883 247.689 84.7769 247.732 84.7684L247.936 85.6718C247.868 85.6974 247.773 85.7229 247.651 85.7485C247.529 85.7769 247.374 85.7911 247.186 85.7911C246.902 85.7911 246.624 85.73 246.351 85.6079C246.081 85.4857 245.857 85.2996 245.678 85.0496C245.502 84.7996 245.414 84.4843 245.414 84.1036V77.5922ZM251.256 85.8593C250.841 85.8593 250.465 85.7812 250.127 85.6249C249.789 85.4658 249.52 85.2371 249.321 84.9388C249.122 84.6377 249.023 84.2741 249.023 83.8479C249.023 83.4729 249.097 83.1689 249.245 82.936C249.392 82.7002 249.59 82.5155 249.837 82.382C250.084 82.2485 250.357 82.1491 250.655 82.0837C250.956 82.0155 251.259 81.9616 251.563 81.9218C251.961 81.8707 252.283 81.8323 252.53 81.8067C252.78 81.7783 252.962 81.7314 253.076 81.6661C253.192 81.6008 253.25 81.4871 253.25 81.3252V81.2911C253.25 80.8707 253.135 80.5439 252.905 80.311C252.678 80.078 252.333 79.9616 251.87 79.9616C251.389 79.9616 251.013 80.0667 250.74 80.2769C250.468 80.4871 250.276 80.7116 250.165 80.9502L249.211 80.6093C249.381 80.2116 249.608 79.9019 249.892 79.6803C250.179 79.4559 250.492 79.2996 250.83 79.2116C251.171 79.1207 251.506 79.0752 251.836 79.0752C252.046 79.0752 252.287 79.1008 252.56 79.1519C252.836 79.2002 253.101 79.301 253.357 79.4545C253.615 79.6079 253.83 79.8394 254 80.1491C254.171 80.4587 254.256 80.8735 254.256 81.3934V85.7059H253.25V84.8195H253.199C253.131 84.9616 253.017 85.1135 252.858 85.2755C252.699 85.4374 252.488 85.5752 252.223 85.6888C251.959 85.8025 251.637 85.8593 251.256 85.8593ZM251.409 84.9559C251.807 84.9559 252.142 84.8778 252.415 84.7215C252.691 84.5653 252.898 84.3635 253.037 84.1164C253.179 83.8692 253.25 83.6093 253.25 83.3366V82.4161C253.208 82.4672 253.114 82.5141 252.969 82.5567C252.827 82.5965 252.662 82.632 252.475 82.6633C252.29 82.6917 252.11 82.7172 251.934 82.74C251.76 82.7599 251.62 82.7769 251.512 82.7911C251.25 82.8252 251.006 82.8806 250.779 82.9573C250.554 83.0312 250.372 83.1434 250.233 83.2939C250.097 83.4417 250.029 83.6434 250.029 83.8991C250.029 84.2485 250.158 84.5127 250.416 84.6917C250.678 84.8678 251.009 84.9559 251.409 84.9559ZM250.591 78.3763L249.807 78.3422C249.807 77.9076 249.931 77.5525 250.178 77.2769C250.428 76.9985 250.736 76.8593 251.103 76.8593C251.264 76.8593 251.408 76.8877 251.533 76.9445C251.658 76.9985 251.777 77.061 251.891 77.132C252.005 77.203 252.121 77.267 252.24 77.3238C252.363 77.3778 252.5 77.4047 252.654 77.4047C252.816 77.4047 252.952 77.3422 253.063 77.2172C253.176 77.0894 253.233 76.936 253.233 76.757L254 76.8252C254 77.2684 253.875 77.6207 253.625 77.882C253.378 78.1434 253.071 78.2741 252.705 78.2741C252.509 78.2741 252.347 78.2471 252.219 78.1931C252.091 78.1363 251.978 78.0724 251.878 78.0013C251.779 77.9303 251.674 77.8678 251.563 77.8138C251.452 77.757 251.316 77.7286 251.154 77.7286C250.992 77.7286 250.857 77.7925 250.749 77.9204C250.644 78.0454 250.591 78.1974 250.591 78.3763ZM258.751 85.8422C258.16 85.8422 257.641 85.7016 257.195 85.4204C256.752 85.1391 256.405 84.7457 256.155 84.24C255.908 83.7343 255.785 83.1434 255.785 82.4672C255.785 81.7854 255.908 81.1903 256.155 80.6817C256.405 80.1732 256.752 79.7783 257.195 79.4971C257.641 79.2158 258.16 79.0752 258.751 79.0752C259.342 79.0752 259.859 79.2158 260.302 79.4971C260.748 79.7783 261.094 80.1732 261.342 80.6817C261.592 81.1903 261.717 81.7854 261.717 82.4672C261.717 83.1434 261.592 83.7343 261.342 84.24C261.094 84.7457 260.748 85.1391 260.302 85.4204C259.859 85.7016 259.342 85.8422 258.751 85.8422ZM258.751 84.9388C259.2 84.9388 259.569 84.8238 259.859 84.5937C260.148 84.3635 260.363 84.061 260.502 83.686C260.641 83.311 260.711 82.9047 260.711 82.4672C260.711 82.0297 260.641 81.6221 260.502 81.2442C260.363 80.8664 260.148 80.561 259.859 80.328C259.569 80.0951 259.2 79.9786 258.751 79.9786C258.302 79.9786 257.932 80.0951 257.643 80.328C257.353 80.561 257.138 80.8664 256.999 81.2442C256.86 81.6221 256.79 82.0297 256.79 82.4672C256.79 82.9047 256.86 83.311 256.999 83.686C257.138 84.061 257.353 84.3635 257.643 84.5937C257.932 84.8238 258.302 84.9388 258.751 84.9388ZM269.098 85.8422C268.553 85.8422 268.071 85.7045 267.654 85.4289C267.236 85.1505 266.909 84.7584 266.674 84.2528C266.438 83.7442 266.32 83.1434 266.32 82.4502C266.32 81.7627 266.438 81.1661 266.674 80.6604C266.909 80.1547 267.238 79.7641 267.658 79.4885C268.078 79.213 268.564 79.0752 269.115 79.0752C269.541 79.0752 269.878 79.1462 270.125 79.2883C270.375 79.4275 270.566 79.5866 270.696 79.7655C270.83 79.9417 270.934 80.0866 271.007 80.2002H271.093V76.9786H272.098V85.7059H271.127V84.7002H271.007C270.934 84.8195 270.828 84.9701 270.692 85.1519C270.556 85.3309 270.361 85.4914 270.108 85.6334C269.855 85.7726 269.519 85.8422 269.098 85.8422ZM269.235 84.9388C269.638 84.9388 269.979 84.8337 270.257 84.6235C270.536 84.4104 270.747 84.1164 270.892 83.7414C271.037 83.3635 271.11 82.9275 271.11 82.4332C271.11 81.9445 271.039 81.517 270.897 81.1505C270.755 80.7812 270.544 80.4942 270.266 80.2897C269.988 80.0823 269.644 79.9786 269.235 79.9786C268.809 79.9786 268.453 80.088 268.169 80.3067C267.888 80.5226 267.676 80.8167 267.534 81.1888C267.395 81.5582 267.326 81.9729 267.326 82.4332C267.326 82.8991 267.397 83.3224 267.539 83.703C267.684 84.0809 267.897 84.382 268.178 84.6064C268.462 84.828 268.814 84.9388 269.235 84.9388ZM276.824 85.8422C276.193 85.8422 275.649 85.703 275.192 85.4246C274.738 85.1434 274.387 84.7513 274.139 84.2485C273.895 83.7428 273.773 83.1547 273.773 82.4843C273.773 81.8138 273.895 81.2229 274.139 80.7116C274.387 80.1974 274.73 79.7968 275.171 79.5099C275.614 79.2201 276.131 79.0752 276.722 79.0752C277.063 79.0752 277.399 79.132 277.732 79.2457C278.064 79.3593 278.367 79.5439 278.639 79.7996C278.912 80.0525 279.13 80.3877 279.291 80.8053C279.453 81.2229 279.534 81.7371 279.534 82.3479V82.7741H274.489V81.9047H278.512C278.512 81.5354 278.438 81.2059 278.29 80.9161C278.145 80.6263 277.938 80.3976 277.668 80.23C277.401 80.0624 277.086 79.9786 276.722 79.9786C276.321 79.9786 275.975 80.078 275.682 80.2769C275.392 80.4729 275.169 80.7286 275.013 81.0439C274.857 81.3593 274.779 81.6974 274.779 82.0582V82.6377C274.779 83.132 274.864 83.551 275.034 83.8948C275.208 84.2357 275.448 84.4957 275.755 84.6746C276.061 84.8508 276.418 84.9388 276.824 84.9388C277.088 84.9388 277.327 84.9019 277.54 84.828C277.756 84.7513 277.942 84.6377 278.098 84.4871C278.255 84.3337 278.375 84.1434 278.461 83.9161L279.432 84.1888C279.33 84.5184 279.158 84.8082 278.916 85.0582C278.675 85.3053 278.377 85.4985 278.022 85.6377C277.666 85.7741 277.267 85.8422 276.824 85.8422ZM191.912 91.9786V100.706H190.855V91.9786H191.912ZM194.9 96.7684V100.706H193.894V94.1604H194.866V95.1832H194.951C195.105 94.8508 195.337 94.5837 195.65 94.382C195.962 94.1775 196.366 94.0752 196.86 94.0752C197.303 94.0752 197.691 94.1661 198.024 94.3479C198.356 94.5269 198.614 94.7996 198.799 95.1661C198.984 95.5297 199.076 95.99 199.076 96.5468V100.706H198.07V96.615C198.07 96.1008 197.937 95.7002 197.67 95.4133C197.403 95.1235 197.036 94.9786 196.57 94.9786C196.249 94.9786 195.962 95.0482 195.71 95.1874C195.46 95.3266 195.262 95.5297 195.117 95.7968C194.972 96.0638 194.9 96.3877 194.9 96.7684ZM206.032 94.1604L203.611 100.706H202.589L200.168 94.1604H201.259L203.066 99.3763H203.134L204.941 94.1604H206.032ZM209.869 100.842C209.238 100.842 208.694 100.703 208.237 100.425C207.782 100.143 207.432 99.7513 207.184 99.2485C206.94 98.7428 206.818 98.1547 206.818 97.4843C206.818 96.8138 206.94 96.2229 207.184 95.7116C207.432 95.1974 207.775 94.7968 208.216 94.5099C208.659 94.2201 209.176 94.0752 209.767 94.0752C210.108 94.0752 210.444 94.132 210.777 94.2457C211.109 94.3593 211.412 94.5439 211.684 94.7996C211.957 95.0525 212.174 95.3877 212.336 95.8053C212.498 96.2229 212.579 96.7371 212.579 97.3479V97.7741H207.534V96.9047H211.557C211.557 96.5354 211.483 96.2059 211.335 95.9161C211.19 95.6263 210.983 95.3976 210.713 95.23C210.446 95.0624 210.13 94.9786 209.767 94.9786C209.366 94.9786 209.02 95.078 208.727 95.2769C208.437 95.4729 208.214 95.7286 208.058 96.0439C207.902 96.3593 207.824 96.6974 207.824 97.0582V97.6377C207.824 98.132 207.909 98.551 208.079 98.8948C208.253 99.2357 208.493 99.4957 208.799 99.6746C209.106 99.8508 209.463 99.9388 209.869 99.9388C210.133 99.9388 210.372 99.9019 210.585 99.828C210.801 99.7513 210.987 99.6377 211.143 99.4871C211.299 99.3337 211.42 99.1434 211.505 98.9161L212.477 99.1888C212.375 99.5184 212.203 99.8082 211.961 100.058C211.72 100.305 211.422 100.498 211.067 100.638C210.711 100.774 210.312 100.842 209.869 100.842ZM215.115 96.7684V100.706H214.109V94.1604H215.081V95.1832H215.166C215.319 94.8508 215.552 94.5837 215.865 94.382C216.177 94.1775 216.581 94.0752 217.075 94.0752C217.518 94.0752 217.906 94.1661 218.238 94.3479C218.571 94.5269 218.829 94.7996 219.014 95.1661C219.199 95.5297 219.291 95.99 219.291 96.5468V100.706H218.285V96.615C218.285 96.1008 218.152 95.7002 217.885 95.4133C217.618 95.1235 217.251 94.9786 216.785 94.9786C216.464 94.9786 216.177 95.0482 215.924 95.1874C215.674 95.3266 215.477 95.5297 215.332 95.7968C215.187 96.0638 215.115 96.3877 215.115 96.7684ZM223.975 94.1604V95.0127H220.583V94.1604H223.975ZM221.572 92.5922H222.578V98.8309C222.578 99.115 222.619 99.328 222.701 99.4701C222.786 99.6093 222.894 99.703 223.025 99.7513C223.158 99.7968 223.299 99.8195 223.447 99.8195C223.558 99.8195 223.649 99.8138 223.72 99.8025C223.791 99.7883 223.847 99.7769 223.89 99.7684L224.095 100.672C224.026 100.697 223.931 100.723 223.809 100.748C223.687 100.777 223.532 100.791 223.345 100.791C223.06 100.791 222.782 100.73 222.509 100.608C222.239 100.486 222.015 100.3 221.836 100.05C221.66 99.7996 221.572 99.4843 221.572 99.1036V92.5922ZM227.414 100.859C226.999 100.859 226.623 100.781 226.285 100.625C225.947 100.466 225.678 100.237 225.48 99.9388C225.281 99.6377 225.181 99.2741 225.181 98.8479C225.181 98.4729 225.255 98.1689 225.403 97.936C225.551 97.7002 225.748 97.5155 225.995 97.382C226.242 97.2485 226.515 97.1491 226.813 97.0837C227.114 97.0155 227.417 96.9616 227.721 96.9218C228.119 96.8707 228.441 96.8323 228.688 96.8067C228.938 96.7783 229.12 96.7314 229.234 96.6661C229.35 96.6008 229.408 96.4871 229.408 96.3252V96.2911C229.408 95.8707 229.293 95.5439 229.063 95.311C228.836 95.078 228.491 94.9616 228.028 94.9616C227.548 94.9616 227.171 95.0667 226.899 95.2769C226.626 95.4871 226.434 95.7116 226.323 95.9502L225.369 95.6093C225.539 95.2116 225.766 94.9019 226.051 94.6803C226.337 94.4559 226.65 94.2996 226.988 94.2116C227.329 94.1207 227.664 94.0752 227.994 94.0752C228.204 94.0752 228.445 94.1008 228.718 94.1519C228.994 94.2002 229.259 94.301 229.515 94.4545C229.774 94.6079 229.988 94.8394 230.158 95.1491C230.329 95.4587 230.414 95.8735 230.414 96.3934V100.706H229.408V99.8195H229.357C229.289 99.9616 229.176 100.114 229.016 100.275C228.857 100.437 228.646 100.575 228.382 100.689C228.117 100.802 227.795 100.859 227.414 100.859ZM227.568 99.9559C227.965 99.9559 228.301 99.8778 228.573 99.7215C228.849 99.5653 229.056 99.3635 229.195 99.1164C229.337 98.8692 229.408 98.6093 229.408 98.3366V97.4161C229.366 97.4672 229.272 97.5141 229.127 97.5567C228.985 97.5965 228.82 97.632 228.633 97.6633C228.448 97.6917 228.268 97.7172 228.092 97.74C227.918 97.7599 227.778 97.7769 227.67 97.7911C227.408 97.8252 227.164 97.8806 226.937 97.9573C226.712 98.0312 226.531 98.1434 226.391 98.2939C226.255 98.4417 226.187 98.6434 226.187 98.8991C226.187 99.2485 226.316 99.5127 226.575 99.6917C226.836 99.8678 227.167 99.9559 227.568 99.9559ZM227.602 93.2741L228.641 91.2968H229.818L228.488 93.2741H227.602ZM232.25 100.706V94.1604H233.221V95.1491H233.29C233.409 94.8252 233.625 94.5624 233.937 94.3607C234.25 94.159 234.602 94.0582 234.994 94.0582C235.068 94.0582 235.16 94.0596 235.271 94.0624C235.382 94.0653 235.466 94.0695 235.522 94.0752V95.0979C235.488 95.0894 235.41 95.0766 235.288 95.0596C235.169 95.0397 235.042 95.0297 234.909 95.0297C234.591 95.0297 234.307 95.0965 234.057 95.23C233.809 95.3607 233.613 95.5425 233.469 95.7755C233.326 96.0056 233.255 96.2684 233.255 96.5638V100.706H232.25ZM236.715 100.706V94.1604H237.72V100.706H236.715ZM237.226 93.0695C237.03 93.0695 236.861 93.0028 236.719 92.8692C236.58 92.7357 236.51 92.5752 236.51 92.3877C236.51 92.2002 236.58 92.0397 236.719 91.9062C236.861 91.7726 237.03 91.7059 237.226 91.7059C237.422 91.7059 237.59 91.7726 237.729 91.9062C237.871 92.0397 237.942 92.2002 237.942 92.3877C237.942 92.5752 237.871 92.7357 237.729 92.8692C237.59 93.0028 237.422 93.0695 237.226 93.0695ZM242.221 100.842C241.63 100.842 241.112 100.702 240.666 100.42C240.223 100.139 239.876 99.7457 239.626 99.24C239.379 98.7343 239.255 98.1434 239.255 97.4672C239.255 96.7854 239.379 96.1903 239.626 95.6817C239.876 95.1732 240.223 94.7783 240.666 94.4971C241.112 94.2158 241.63 94.0752 242.221 94.0752C242.812 94.0752 243.329 94.2158 243.772 94.4971C244.219 94.7783 244.565 95.1732 244.812 95.6817C245.062 96.1903 245.187 96.7854 245.187 97.4672C245.187 98.1434 245.062 98.7343 244.812 99.24C244.565 99.7457 244.219 100.139 243.772 100.42C243.329 100.702 242.812 100.842 242.221 100.842ZM242.221 99.9388C242.67 99.9388 243.04 99.8238 243.329 99.5937C243.619 99.3635 243.834 99.061 243.973 98.686C244.112 98.311 244.182 97.9047 244.182 97.4672C244.182 97.0297 244.112 96.6221 243.973 96.2442C243.834 95.8664 243.619 95.561 243.329 95.328C243.04 95.0951 242.67 94.9786 242.221 94.9786C241.772 94.9786 241.403 95.0951 241.113 95.328C240.824 95.561 240.609 95.8664 240.47 96.2442C240.331 96.6221 240.261 97.0297 240.261 97.4672C240.261 97.9047 240.331 98.311 240.47 98.686C240.609 99.061 240.824 99.3635 241.113 99.5937C241.403 99.8238 241.772 99.9388 242.221 99.9388Z" fill="#003348"/>
</g>
<g filter="url(#filter2_d_102_61)">
<path d="M191.28 29.6366C192.38 29.4533 193.517 29.49 194.69 29.7466C195.79 29.9666 196.762 30.3516 197.605 30.9016C198.045 31.195 198.559 31.6716 199.145 32.3316C199.255 32.515 199.329 32.625 199.365 32.6616L200.85 31.1216C201.877 30.095 202.409 29.5816 202.445 29.5816C202.445 29.545 202.61 29.5266 202.94 29.5266C203.344 29.5266 203.6 29.6366 203.71 29.8566C203.747 30.0033 203.234 32.2033 202.17 36.4566C201.07 40.7833 200.484 42.9833 200.41 43.0566L200.245 43.2216H199.09C198.137 43.2216 197.624 43.13 197.55 42.9466C197.514 42.8 197.532 42.4883 197.605 42.0116C198.192 38.1616 197.715 35.4666 196.175 33.9266C195.332 33.0466 194.122 32.5516 192.545 32.4416C190.749 32.405 189.117 33.12 187.65 34.5866C186.88 35.3566 186.294 36.145 185.89 36.9516C185.23 38.345 184.919 39.6833 184.955 40.9666C184.992 41.81 185.139 42.47 185.395 42.9466C185.762 43.7166 186.275 44.2666 186.935 44.5966C187.009 44.6333 188.182 45 190.455 45.6966C192.985 46.43 194.489 46.9433 194.965 47.2366C197.312 48.5933 198.522 50.9583 198.595 54.3316C198.632 57.0083 197.88 59.685 196.34 62.3616C195.167 64.4516 193.572 66.175 191.555 67.5316C190.162 68.4483 188.714 69.0533 187.21 69.3466C186.844 69.42 186.239 69.4566 185.395 69.4566C184.149 69.4566 183.085 69.3466 182.205 69.1266C180.409 68.65 178.96 67.8433 177.86 66.7066L177.42 66.2666L175.935 67.8066L174.34 69.4566L173.79 69.5116H173.735C173.442 69.5116 173.24 69.4566 173.13 69.3466C173.02 69.2366 172.965 69.145 172.965 69.0716C172.965 68.9616 174.029 64.6533 176.155 56.1466C176.412 55.9266 176.925 55.8166 177.695 55.8166H178.85L179.015 55.9816C179.162 56.1283 179.18 56.495 179.07 57.0816C179.07 57.155 179.052 57.2466 179.015 57.3566C178.575 59.52 178.685 61.335 179.345 62.8016C180.115 64.7083 181.729 65.8633 184.185 66.2666C185.249 66.45 186.092 66.4866 186.715 66.3766C188.659 66.0466 190.345 64.745 191.775 62.4716C192.325 61.5916 192.747 60.6566 193.04 59.6666C193.26 58.86 193.37 57.9616 193.37 56.9716C193.37 56.0183 193.26 55.285 193.04 54.7716C192.674 53.855 192.124 53.2316 191.39 52.9016C191.134 52.755 189.942 52.37 187.815 51.7466C185.615 51.1233 184.314 50.72 183.91 50.5366C183.177 50.17 182.499 49.675 181.875 49.0516C180.262 47.365 179.565 45.165 179.785 42.4516C180.005 39.8116 180.977 37.3 182.7 34.9166C183.617 33.78 184.589 32.8266 185.615 32.0566C187.449 30.6633 189.337 29.8566 191.28 29.6366ZM229.809 29.5816L230.964 29.5266H231.019C234.246 29.5266 236.757 30.7 238.554 33.0466C238.811 33.45 238.957 33.6516 238.994 33.6516L241.084 31.6166L243.174 29.5266H243.614C244.091 29.5266 244.366 29.6366 244.439 29.8566C244.476 29.93 243.871 32.5333 242.624 37.6666C241.304 42.9466 240.644 45.5316 240.644 45.4216C240.571 45.6416 240.057 45.7516 239.104 45.7516H237.949L237.784 45.5866C237.637 45.44 237.601 45.11 237.674 44.5966C237.967 42.69 238.022 40.875 237.839 39.1516C237.436 35.5583 236.024 33.4316 233.604 32.7716C233.274 32.6983 232.761 32.6616 232.064 32.6616C230.707 32.625 229.277 32.845 227.774 33.3216C225.977 33.9083 224.364 34.7883 222.934 35.9616C219.671 38.455 217.251 42.4333 215.674 47.8966C214.684 51.5266 214.189 54.515 214.189 56.8616C214.189 58.5483 214.409 59.96 214.849 61.0966C215.802 63.59 217.599 65.2216 220.239 65.9916C220.496 66.065 220.752 66.12 221.009 66.1566C224.052 66.8166 226.674 66.2483 228.874 64.4516C229.644 63.8283 230.194 63.1133 230.524 62.3066C231.477 58.4933 231.954 56.6233 231.954 56.6966C231.954 56.6233 231.642 56.55 231.019 56.4766L228.434 56.3666C227.114 56.3666 226.381 56.33 226.234 56.2566C226.014 56.1833 225.904 56.0183 225.904 55.7616L226.454 53.6166C226.601 53.3966 226.986 53.305 227.609 53.3416C227.792 53.3416 228.177 53.3416 228.764 53.3416C234.704 53.4883 238.829 53.47 241.139 53.2866H241.634L241.799 53.4516C241.946 53.5983 242.019 53.7266 242.019 53.8366L241.524 55.9816C241.451 56.2383 241.066 56.3666 240.369 56.3666C239.196 56.3666 238.462 56.4216 238.169 56.5316C238.096 56.5683 238.004 56.6416 237.894 56.7516C237.857 56.825 237.362 58.7133 236.409 62.4166C235.492 66.12 234.997 68.0083 234.924 68.0816C234.777 68.3016 234.612 68.375 234.429 68.3016C233.989 68.155 233.256 67.5316 232.229 66.4316C232.082 66.285 231.972 66.1566 231.899 66.0466L231.569 65.6616L231.129 66.1016C229.186 67.825 226.711 68.9066 223.704 69.3466C222.457 69.53 221.046 69.5483 219.469 69.4016C216.389 68.8883 213.896 67.6233 211.989 65.6066C211.109 64.7266 210.376 63.7 209.789 62.5266C208.909 60.8766 208.359 59.025 208.139 56.9716C207.992 56.055 207.974 54.7716 208.084 53.1216C208.121 52.9383 208.139 52.7916 208.139 52.6816C208.579 48.575 210.009 44.67 212.429 40.9666C213.162 39.94 213.804 39.0966 214.354 38.4366C215.344 37.2266 216.572 35.9983 218.039 34.7516C221.779 31.7083 225.702 29.985 229.809 29.5816ZM254.197 30.7916C254.27 30.755 254.582 30.7366 255.132 30.7366C259.349 30.92 263.822 30.9383 268.552 30.7916C269.689 30.755 270.33 30.8466 270.477 31.0666C270.55 31.1766 270.514 31.5983 270.367 32.3316C270.184 33.175 270 33.6333 269.817 33.7066C269.634 33.78 268.992 33.8166 267.892 33.8166C266.169 33.8533 265.16 33.945 264.867 34.0916C264.684 34.165 264.555 34.2933 264.482 34.4766C264.299 34.99 262.997 40.05 260.577 49.6566C258.047 59.8133 256.8 64.91 256.837 64.9466C256.91 65.13 258.084 65.2216 260.357 65.2216H261.567L261.787 65.3866C261.897 65.5333 261.952 65.6616 261.952 65.7716L261.457 67.9716C261.347 68.1916 260.962 68.2833 260.302 68.2466C260.119 68.2466 259.77 68.2466 259.257 68.2466C253.537 68.1 249.064 68.1183 245.837 68.3016H245.177L245.012 68.1366C244.865 67.99 244.792 67.8616 244.792 67.7516L245.287 65.5516C245.397 65.3316 245.91 65.2216 246.827 65.2216C247.01 65.2216 247.23 65.2216 247.487 65.2216C249.43 65.185 250.549 65.0383 250.842 64.7816C250.879 64.745 252.18 59.6483 254.747 49.4916C257.277 39.3716 258.542 34.275 258.542 34.2016C258.542 34.165 258.505 34.11 258.432 34.0366C258.249 33.9266 257.295 33.8533 255.572 33.8166H253.812L253.592 33.5966C253.409 33.4133 253.427 32.9183 253.647 32.1116C253.867 31.3416 254.05 30.9016 254.197 30.7916Z" fill="#003348"/>
</g>
</g>
<g filter="url(#filter3_d_102_61)">
<g filter="url(#filter4_d_102_61)">
<path d="M35.3833 11.5012C18.899 17.8332 5.19839 23.1799 4.93402 23.3737C3.93874 24.1491 4.00094 21.2577 4.00094 62.1898C4.00094 102.863 3.93874 100.053 4.82516 100.925C5.04288 101.119 17.1417 105.852 35.3367 112.83C58.7102 121.795 65.6616 124.412 66.2059 124.412C66.7502 124.412 73.6705 121.811 96.9196 112.895C113.435 106.563 127.151 101.216 127.416 101.006C127.68 100.812 128.022 100.392 128.162 100.085C128.395 99.5682 128.411 96.4668 128.411 62.1736C128.411 21.4838 128.473 24.2945 127.587 23.4222C127.369 23.2284 115.301 18.5116 97.0906 11.5335C71.1667 1.59928 66.8435 -0.0160377 66.1592 0.000115473C65.4905 0.000115473 60.2964 1.93849 35.3833 11.5012ZM92.4719 15.2487C106.841 20.7569 118.614 25.296 118.614 25.3444C118.614 25.3929 106.81 29.9481 92.4097 35.4563L66.2059 45.5036L61.5872 43.7267C59.0523 42.7575 56.8907 41.9176 56.7818 41.8529C56.673 41.7883 60.8252 40.1246 66.2525 38.0408C71.5711 36.0055 76.3608 34.1317 76.8896 33.8733C77.8693 33.4048 78.3358 32.8556 78.5536 31.9188C78.7713 30.9334 78.0248 29.5765 77.0295 29.1404C76.7652 29.0273 70.5447 26.6367 63.22 23.826C55.2734 20.7892 49.6749 18.7216 49.3483 18.7216C49.0373 18.7216 43.5166 20.7569 35.7255 23.7291C28.5097 26.4913 22.538 28.7366 22.4292 28.7043C21.916 28.5751 13.7982 25.409 13.7982 25.3444C13.7982 25.2475 66.0815 5.16913 66.237 5.21759C66.2836 5.21759 78.087 9.74047 92.4719 15.2487ZM59.099 27.7028C64.3708 29.7219 68.6941 31.418 68.6941 31.4826C68.6941 31.5957 49.6438 38.9615 49.3483 38.9615C49.084 38.9615 29.9715 31.5795 29.9715 31.4826C29.9715 31.3695 48.9129 24.0845 49.255 24.0522C49.3794 24.0522 53.8115 25.6836 59.099 27.7028ZM15.5866 31.5795C17.9037 32.4357 19.8788 33.2272 19.9876 33.3079C20.1276 33.421 20.1742 36.8293 20.1742 49.3965C20.1742 64.9035 20.1898 65.3396 20.4853 65.8404C20.6408 66.1311 20.9518 66.4704 21.154 66.5996C21.3561 66.745 27.6077 69.2002 35.0412 72.0594C49.8149 77.7453 49.5816 77.6645 50.6858 76.873C50.9968 76.663 51.37 76.2592 51.5411 75.9846C51.8054 75.5323 51.821 74.7569 51.8676 60.5098C51.8832 52.2717 51.961 45.5359 52.0232 45.552C52.0854 45.552 54.7291 46.5535 57.886 47.765L63.6399 49.978L63.6866 84.1096C63.7021 102.88 63.6555 118.209 63.5933 118.16C63.5 118.112 11.4189 98.0982 9.41277 97.3552L8.97734 97.1937V63.1267V29.0758L10.1903 29.5281C10.8435 29.7865 13.285 30.7073 15.5866 31.5795ZM123.372 97.1775C123.341 97.2098 111.196 101.878 96.3597 107.564C81.5239 113.25 69.2384 117.967 69.0362 118.064L68.6941 118.225L68.7252 84.0935L68.7718 49.978L96.0643 39.543L123.357 29.092L123.403 63.1105C123.419 81.8159 123.403 97.1452 123.372 97.1775ZM36.814 39.7046L46.8446 43.549L46.8912 57.2954C46.9068 64.8712 46.9068 71.0579 46.8912 71.0579C46.8601 71.0579 41.946 69.1679 35.9587 66.8742L25.0729 62.7067L25.0262 49.1542C25.0107 41.6914 25.0262 35.5048 25.0729 35.4078C25.1195 35.2463 25.3528 35.2786 25.9593 35.5371C26.4103 35.7147 31.2934 37.5885 36.814 39.7046Z" fill="#003348"/>
</g>
<path d="M105.146 72.3178C99.4079 74.5146 94.5248 76.453 94.2915 76.6145C93.7783 76.9537 93.3273 77.7129 93.1874 78.4398C93.063 79.1829 93.6228 80.3782 94.3382 80.8628C95.3956 81.5897 95.489 81.5574 106.515 77.3414C112.098 75.2092 116.919 73.3031 117.23 73.1254C119.267 71.9463 118.614 68.6833 116.281 68.3926C115.659 68.3118 114.539 68.6995 105.146 72.3178Z" fill="#003348"/>
<path d="M115.659 78.7791C115.441 78.8114 110.589 80.6205 104.851 82.8174C93.4828 87.1626 93.6383 87.0818 93.2651 88.5033C92.9074 89.8763 93.9182 91.427 95.3179 91.637C95.9555 91.7339 96.8419 91.427 106.577 87.6956C112.378 85.4665 117.307 83.5281 117.509 83.3666C118.785 82.3974 118.754 80.0875 117.463 79.2152C116.996 78.8921 116.188 78.6983 115.659 78.7791Z" fill="#003348"/>
<path d="M115.192 89.3917C113.777 89.7955 89.1285 99.342 88.7552 99.6166C87.7911 100.36 87.5267 102.023 88.2109 103.09C88.693 103.816 89.3306 104.172 90.2015 104.204C90.6991 104.204 94.0116 103.009 103.98 99.1805C111.18 96.4183 117.292 94.0115 117.525 93.8338C118.458 93.1392 118.754 91.4431 118.1 90.4416C117.463 89.4401 116.374 89.0525 115.192 89.3917Z" fill="#003348"/>
<path d="M81.8349 102.153C81.244 102.379 80.5597 102.75 80.3265 102.993C79.0824 104.236 79.4867 106.369 81.104 107.112C81.8972 107.483 82.5503 107.435 83.7322 106.902C85.4584 106.143 86.0338 104.85 85.3495 103.267C84.7586 101.943 83.4989 101.539 81.8349 102.153Z" fill="#003348"/>
</g>
<defs>
<filter id="filter0_d_102_61" x="152.138" y="29.3616" width="131.396" height="79.4977" filterUnits="userSpaceOnUse" color-interpolation-filters="sRGB">
<feFlood flood-opacity="0" result="BackgroundImageFix"/>
<feColorMatrix in="SourceAlpha" type="matrix" values="0 0 0 0 0 0 0 0 0 0 0 0 0 0 0 0 0 0 127 0" result="hardAlpha"/>
<feOffset dy="4"/>
<feGaussianBlur stdDeviation="2"/>
<feComposite in2="hardAlpha" operator="out"/>
<feColorMatrix type="matrix" values="0 0 0 0 0 0 0 0 0 0 0 0 0 0 0 0 0 0 0.25 0"/>
<feBlend mode="normal" in2="BackgroundImageFix" result="effect1_dropShadow_102_61"/>
<feBlend mode="normal" in="SourceGraphic" in2="effect1_dropShadow_102_61" result="shape"/>
</filter>
<filter id="filter1_d_102_61" x="152.138" y="76.7059" width="131.396" height="32.1534" filterUnits="userSpaceOnUse" color-interpolation-filters="sRGB">
<feFlood flood-opacity="0" result="BackgroundImageFix"/>
<feColorMatrix in="SourceAlpha" type="matrix" values="0 0 0 0 0 0 0 0 0 0 0 0 0 0 0 0 0 0 127 0" result="hardAlpha"/>
<feOffset dy="4"/>
<feGaussianBlur stdDeviation="2"/>
<feComposite in2="hardAlpha" operator="out"/>
<feColorMatrix type="matrix" values="0 0 0 0 0 0 0 0 0 0 0 0 0 0 0 0 0 0 0.25 0"/>
<feBlend mode="normal" in2="BackgroundImageFix" result="effect1_dropShadow_102_61"/>
<feBlend mode="normal" in="SourceGraphic" in2="effect1_dropShadow_102_61" result="shape"/>
</filter>
<filter id="filter2_d_102_61" x="168.965" y="29.3616" width="105.622" height="48.26" filterUnits="userSpaceOnUse" color-interpolation-filters="sRGB">
<feFlood flood-opacity="0" result="BackgroundImageFix"/>
<feColorMatrix in="SourceAlpha" type="matrix" values="0 0 0 0 0 0 0 0 0 0 0 0 0 0 0 0 0 0 127 0" result="hardAlpha"/>
<feOffset dy="4"/>
<feGaussianBlur stdDeviation="2"/>
<feComposite in2="hardAlpha" operator="out"/>
<feColorMatrix type="matrix" values="0 0 0 0 0 0 0 0 0 0 0 0 0 0 0 0 0 0 0.25 0"/>
<feBlend mode="normal" in2="BackgroundImageFix" result="effect1_dropShadow_102_61"/>
<feBlend mode="normal" in="SourceGraphic" in2="effect1_dropShadow_102_61" result="shape"/>
</filter>
<filter id="filter3_d_102_61" x="0" y="-3.8147e-06" width="132.412" height="132.412" filterUnits="userSpaceOnUse" color-interpolation-filters="sRGB">
<feFlood flood-opacity="0" result="BackgroundImageFix"/>
<feColorMatrix in="SourceAlpha" type="matrix" values="0 0 0 0 0 0 0 0 0 0 0 0 0 0 0 0 0 0 127 0" result="hardAlpha"/>
<feOffset dy="4"/>
<feGaussianBlur stdDeviation="2"/>
<feComposite in2="hardAlpha" operator="out"/>
<feColorMatrix type="matrix" values="0 0 0 0 0 0 0 0 0 0 0 0 0 0 0 0 0 0 0.1 0"/>
<feBlend mode="normal" in2="BackgroundImageFix" result="effect1_dropShadow_102_61"/>
<feBlend mode="normal" in="SourceGraphic" in2="effect1_dropShadow_102_61" result="shape"/>
</filter>
<filter id="filter4_d_102_61" x="0" y="-3.8147e-06" width="132.412" height="132.412" filterUnits="userSpaceOnUse" color-interpolation-filters="sRGB">
<feFlood flood-opacity="0" result="BackgroundImageFix"/>
<feColorMatrix in="SourceAlpha" type="matrix" values="0 0 0 0 0 0 0 0 0 0 0 0 0 0 0 0 0 0 127 0" result="hardAlpha"/>
<feOffset dy="4"/>
<feGaussianBlur stdDeviation="2"/>
<feComposite in2="hardAlpha" operator="out"/>
<feColorMatrix type="matrix" values="0 0 0 0 0 0 0 0 0 0 0 0 0 0 0 0 0 0 0.1 0"/>
<feBlend mode="normal" in2="BackgroundImageFix" result="effect1_dropShadow_102_61"/>
<feBlend mode="normal" in="SourceGraphic" in2="effect1_dropShadow_102_61" result="shape"/>
</filter>
</defs>
</svg>
